<svg xmlns="http://www.w3.org/2000/svg" viewBox="0 0 512 512">
  <defs>
    <linearGradient id="bg" x1="0%" y1="0%" x2="100%" y2="100%">
      <stop offset="0%" style="stop-color:#10b981"/>
      <stop offset="100%" style="stop-color:#059669"/>
    </linearGradient>
  </defs>
  <rect width="512" height="512" rx="100" fill="url(#bg)"/>
  <g transform="translate(106, 80)">
    <!-- Ghost body -->
    <path d="M150 0C67.2 0 0 67.2 0 150v170c0 16 13 29 29 29 16 0 29-13 29-29v-29c0-16 13-29 29-29s29 13 29 29v29c0 16 13 29 29 29 16 0 29-13 29-29v-29c0-16 13-29 29-29s29 13 29 29v29c0 16 13 29 29 29 16 0 29-13 29-29V150C300 67.2 232.8 0 150 0z" fill="white"/>
    <!-- Eyes -->
    <circle cx="100" cy="140" r="25" fill="#1f2937"/>
    <circle cx="200" cy="140" r="25" fill="#1f2937"/>
    <!-- Eye shine -->
    <circle cx="92" cy="132" r="8" fill="white"/>
    <circle cx="192" cy="132" r="8" fill="white"/>
  </g>
</svg>
